<svg width="43" height="34" viewBox="0 0 43 34" fill="none" xmlns="http://www.w3.org/2000/svg">
  <path d="M18 24C17.45 24 16.9793 23.8043 16.588 23.413C16.1967 23.0217 16.0007 22.5507 16 22V12C16 11.45 16.196 10.9793 16.588 10.588C16.98 10.1967 17.4507 10.0007 18 10H34C34.55 10 35.021 10.196 35.413 10.588C35.805 10.98 36.0007 11.4507 36 12V22C36 22.55 35.8043 23.021 35.413 23.413C35.0217 23.805 34.5507 24.0007 34 24H18ZM22 21H30V19H22V21ZM19 18H21V16H19V18ZM22 18H24V16H22V18ZM25 18H27V16H25V18ZM28 18H30V16H28V18ZM31 18H33V16H31V18ZM19 15H21V13H19V15ZM22 15H24V13H22V15ZM25 15H27V13H25V15ZM28 15H30V13H28V15ZM31 15H33V13H31V15Z" fill="#999999"/>
  <path fill-rule="evenodd" clip-rule="evenodd" d="M2.41379 17.485L9.48479 24.556L8.07079 25.97L0.292786 18.192C0.105315 18.0045 0 17.7502 0 17.485C0 17.2198 0.105315 16.9655 0.292786 16.778L8.07079 9L9.48479 10.414L2.41379 17.485Z" fill="#999999"/>
</svg>
