<svg width="28" height="28" viewBox="0 0 14 14" fill="none" xmlns="http://www.w3.org/2000/svg">
    <path fill-rule="evenodd" clip-rule="evenodd"
        d="M7 0C5.14348 0 3.36301 0.737498 2.05025 2.05025C0.737498 3.36301 0 5.14348 0 7C0 8.85652 0.737498 10.637 2.05025 11.9497C3.36301 13.2625 5.14348 14 7 14C8.85652 14 10.637 13.2625 11.9497 11.9497C13.2625 10.637 14 8.85652 14 7C14 5.14348 13.2625 3.36301 11.9497 2.05025C10.637 0.737498 8.85652 0 7 0ZM5 4.5C4.86739 4.5 4.74021 4.55268 4.64645 4.64645C4.55268 4.74021 4.5 4.86739 4.5 5V9C4.5 9.13261 4.55268 9.25979 4.64645 9.35355C4.74021 9.44732 4.86739 9.5 5 9.5H9C9.13261 9.5 9.25979 9.44732 9.35355 9.35355C9.44732 9.25979 9.5 9.13261 9.5 9V5C9.5 4.86739 9.44732 4.74021 9.35355 4.64645C9.25979 4.55268 9.13261 4.5 9 4.5H5Z"
        fill="#999999" />
</svg>