<svg width="21" height="21" viewBox="0 0 21 21" fill="none" xmlns="http://www.w3.org/2000/svg">
  <path d="M6.72 15.75L10.5 11.97L14.28 15.75L15.75 14.28L11.97 10.5L15.75 6.72L14.28 5.25L10.5 9.03L6.72 5.25L5.25 6.72L9.03 10.5L5.25 14.28L6.72 15.75ZM10.5 21C9.0475 21 7.6825 20.7242 6.405 20.1726C5.1275 19.621 4.01625 18.873 3.07125 17.9287C2.12625 16.9844 1.3783 15.8732 0.827401 14.595C0.276501 13.3168 0.000701329 11.9518 1.32911e-06 10.5C-0.00069867 9.0482 0.275101 7.6832 0.827401 6.405C1.3797 5.1268 2.12765 4.01555 3.07125 3.07125C4.01485 2.12695 5.1261 1.379 6.405 0.8274C7.6839 0.2758 9.0489 0 10.5 0C11.9511 0 13.3161 0.2758 14.595 0.8274C15.8739 1.379 16.9851 2.12695 17.9287 3.07125C18.8723 4.01555 19.6206 5.1268 20.1736 6.405C20.7266 7.6832 21.0021 9.0482 21 10.5C20.9979 11.9518 20.7221 13.3168 20.1726 14.595C19.6231 15.8732 18.8751 16.9844 17.9287 17.9287C16.9823 18.873 15.8711 19.6213 14.595 20.1736C13.3189 20.7259 11.9539 21.0014 10.5 21Z" fill="#FF0000"/>
</svg>
