<svg width="17" height="21" viewBox="0 0 17 21" fill="none" xmlns="http://www.w3.org/2000/svg">
<path d="M3.1875 5.24995V3.14994C3.18751 2.54186 3.36562 1.94678 3.70033 1.43654C4.03504 0.926289 4.51203 0.522686 5.07374 0.274445C5.63545 0.0262036 6.25786 -0.056064 6.86583 0.0375725C7.47381 0.131209 8.04137 0.396747 8.5 0.802133C8.95863 0.396747 9.52619 0.131209 10.1342 0.0375725C10.7421 -0.056064 11.3646 0.0262036 11.9263 0.274445C12.488 0.522686 12.965 0.926289 13.2997 1.43654C13.6344 1.94678 13.8125 2.54186 13.8125 3.14994V5.24995H15.4062C15.8289 5.24995 16.2343 5.41589 16.5332 5.71126C16.8321 6.00663 17 6.40724 17 6.82495V16.8C17 17.5007 16.8226 18.1904 16.4839 18.806C16.1452 19.4217 15.656 19.9438 15.0609 20.3248L14.4819 20.224C13.6584 20.0812 12.8095 19.6329 12.1709 18.9934C11.5324 18.354 11.1562 17.5801 11.1562 16.8V5.24995H12.2188V3.14994C12.2188 2.82574 12.1176 2.50942 11.9289 2.24417C11.7403 1.97892 11.4734 1.77766 11.1648 1.66786C10.8561 1.55806 10.5206 1.54508 10.2042 1.63067C9.88779 1.71627 9.6058 1.89628 9.39675 2.14614C9.50406 2.46114 9.5625 2.79924 9.5625 3.14994V16.8C9.5625 18.0904 10.1809 19.2423 11.0362 20.0991C11.3811 20.4434 11.7663 20.7459 12.1837 21H4.25C3.12283 21 2.04183 20.5575 1.2448 19.7698C0.447766 18.9822 0 17.9139 0 16.8V6.82495C0 6.40724 0.167912 6.00663 0.466798 5.71126C0.765684 5.41589 1.17106 5.24995 1.59375 5.24995H3.1875ZM4.78125 3.14994V5.24995H7.96875V3.14994C7.96875 2.73222 7.80084 2.33161 7.50195 2.03624C7.20307 1.74087 6.79769 1.57494 6.375 1.57494C5.95231 1.57494 5.54693 1.74087 5.24805 2.03624C4.94916 2.33161 4.78125 2.73222 4.78125 3.14994Z" fill="url(#paint0_linear_13_466)"/>
<path fill-rule="evenodd" clip-rule="evenodd" d="M7 12C10.4391 11.4344 10.465 8 10.465 8V8.04C10.5363 9.07296 10.9346 10.0408 11.5852 10.7624C12.2359 11.4839 13.0944 11.9097 14 11.96V12C10.5616 12.5648 10.535 16 10.535 16V15.96C10.0366 12.0696 7 12.04 7 12.04V12Z" fill="white"/>
<path fill-rule="evenodd" clip-rule="evenodd" d="M2 16C5.4391 15.4344 5.465 12 5.465 12V12.04C5.53629 13.073 5.93456 14.0408 6.58525 14.7624C7.23593 15.4839 8.09442 15.9097 9 15.96V16C5.5616 16.5648 5.535 20 5.535 20V19.96C5.0366 16.0696 2 16.04 2 16.04V16Z" fill="white"/>
<defs>
<linearGradient id="paint0_linear_13_466" x1="17" y1="10.5" x2="0" y2="10.5" gradientUnits="userSpaceOnUse">
<stop stop-color="#FF0000"/>
<stop offset="1" stop-color="#0029FF"/>
</linearGradient>
</defs>
</svg>
