<svg width="116" height="116" viewBox="0 0 116 116" fill="none" xmlns="http://www.w3.org/2000/svg">
  <g filter="url(#filter0_f_26_33)">
    <circle cx="58" cy="58" r="36" fill="url(#paint0_linear_26_33)" fill-opacity="0.5"/>
  </g>
  <circle cx="58" cy="58" r="25" fill="url(#paint1_linear_26_33)" fill-opacity="0.5"/>
  <g filter="url(#filter1_i_26_33)">
    <circle cx="58" cy="58" r="22" fill="url(#paint2_linear_26_33)"/>
  </g>
  <path d="M58.2308 60.3684C57.489 60.3684 56.8585 60.0921 56.3393 59.5395C55.8201 58.9868 55.5604 58.3158 55.5604 57.5263V51.8421C55.5604 51.0526 55.8201 50.3816 56.3393 49.8289C56.8585 49.2763 57.489 49 58.2308 49C58.9725 49 59.603 49.2763 60.1223 49.8289C60.6415 50.3816 60.9011 51.0526 60.9011 51.8421V57.5263C60.9011 58.3158 60.6415 58.9868 60.1223 59.5395C59.603 60.0921 58.9725 60.3684 58.2308 60.3684ZM57.3407 67V64.0868C55.7978 63.8658 54.522 63.1316 53.5132 61.8842C52.5044 60.6368 52 59.1842 52 57.5263H53.7802C53.7802 58.8368 54.2143 59.9541 55.0825 60.8781C55.9506 61.8021 57 62.2638 58.2308 62.2632C59.4615 62.2625 60.5112 61.8005 61.38 60.8772C62.2487 59.9538 62.6825 58.8368 62.6813 57.5263H64.4615C64.4615 59.1842 63.9571 60.6368 62.9484 61.8842C61.9396 63.1316 60.6637 63.8658 59.1209 64.0868V67H57.3407Z" fill="white"/>
  <defs>
    <filter id="filter0_f_26_33" x="0.1" y="0.1" width="115.8" height="115.8" filterUnits="userSpaceOnUse" color-interpolation-filters="sRGB">
      <feFlood flood-opacity="0" result="BackgroundImageFix"/>
      <feBlend mode="normal" in="SourceGraphic" in2="BackgroundImageFix" result="shape"/>
      <feGaussianBlur stdDeviation="10.95" result="effect1_foregroundBlur_26_33"/>
    </filter>
    <filter id="filter1_i_26_33" x="32" y="36" width="48" height="49.6" filterUnits="userSpaceOnUse" color-interpolation-filters="sRGB">
      <feFlood flood-opacity="0" result="BackgroundImageFix"/>
      <feBlend mode="normal" in="SourceGraphic" in2="BackgroundImageFix" result="shape"/>
      <feColorMatrix in="SourceAlpha" type="matrix" values="0 0 0 0 0 0 0 0 0 0 0 0 0 0 0 0 0 0 127 0" result="hardAlpha"/>
      <feMorphology radius="7" operator="dilate" in="SourceAlpha" result="effect1_innerShadow_26_33"/>
      <feOffset dx="-4" dy="8"/>
      <feGaussianBlur stdDeviation="6.3"/>
      <feComposite in2="hardAlpha" operator="arithmetic" k2="-1" k3="1"/>
      <feColorMatrix type="matrix" values="0 0 0 0 1 0 0 0 0 1 0 0 0 0 1 0 0 0 1 0"/>
      <feBlend mode="normal" in2="shape" result="effect1_innerShadow_26_33"/>
    </filter>
    <linearGradient id="paint0_linear_26_33" x1="22" y1="58" x2="94" y2="58" gradientUnits="userSpaceOnUse">
      <stop stop-color="#0029FF"/>
      <stop offset="0.651" stop-color="#A60E59"/>
      <stop offset="1" stop-color="#FF0000"/>
    </linearGradient>
    <linearGradient id="paint1_linear_26_33" x1="33" y1="58" x2="83" y2="58" gradientUnits="userSpaceOnUse">
      <stop stop-color="#0029FF"/>
      <stop offset="1" stop-color="#FF0000"/>
    </linearGradient>
    <linearGradient id="paint2_linear_26_33" x1="36" y1="58" x2="80" y2="58" gradientUnits="userSpaceOnUse">
      <stop stop-color="#0029FF"/>
      <stop offset="1" stop-color="#FF0000"/>
    </linearGradient>
  </defs>
</svg>
