<svg xmlns="http://www.w3.org/2000/svg" width="28" height="28" viewBox="0 0 25 25" fill="none">
  <circle cx="12.5" cy="12.5" r="12.5" fill="#2647ff"/>
  <path d="M12.5 5C12.7041 5.00003 12.9011 5.07497 13.0536 5.21061C13.2062 5.34625 13.3036 5.53316 13.3275 5.73588L13.3333 5.83338V19.1675C13.3331 19.38 13.2518 19.5843 13.106 19.7387C12.9602 19.8932 12.7609 19.9861 12.5488 19.9986C12.3368 20.011 12.128 19.942 11.9651 19.8057C11.8023 19.6694 11.6976 19.476 11.6725 19.265L11.6667 19.1675V5.83338C11.6667 5.61236 11.7545 5.40038 11.9107 5.24409C12.067 5.0878 12.279 5 12.5 5ZM9.16667 7.50015C9.38768 7.50015 9.59964 7.58796 9.75592 7.74425C9.9122 7.90054 10 8.11251 10 8.33354V16.6674C10 16.8884 9.9122 17.1004 9.75592 17.2567C9.59964 17.413 9.38768 17.5008 9.16667 17.5008C8.94565 17.5008 8.73369 17.413 8.57741 17.2567C8.42113 17.1004 8.33333 16.8884 8.33333 16.6674V8.33354C8.33333 8.11251 8.42113 7.90054 8.57741 7.74425C8.73369 7.58796 8.94565 7.50015 9.16667 7.50015ZM15.8333 7.50015C16.0543 7.50015 16.2663 7.58796 16.4226 7.74425C16.5789 7.90054 16.6667 8.11251 16.6667 8.33354V16.6674C16.6667 16.8884 16.5789 17.1004 16.4226 17.2567C16.2663 17.413 16.0543 17.5008 15.8333 17.5008C15.6123 17.5008 15.4004 17.413 15.2441 17.2567C15.0878 17.1004 15 16.8884 15 16.6674V8.33354C15 8.11251 15.0878 7.90054 15.2441 7.74425C15.4004 7.58796 15.6123 7.50015 15.8333 7.50015ZM5.83333 10.0003C6.05435 10.0003 6.26631 10.0881 6.42259 10.2444C6.57887 10.4007 6.66667 10.6127 6.66667 10.8337V14.1672C6.66667 14.3883 6.57887 14.6002 6.42259 14.7565C6.26631 14.9128 6.05435 15.0006 5.83333 15.0006C5.61232 15.0006 5.40036 14.9128 5.24408 14.7565C5.0878 14.6002 5 14.3883 5 14.1672V10.8337C5 10.6127 5.0878 10.4007 5.24408 10.2444C5.40036 10.0881 5.61232 10.0003 5.83333 10.0003ZM19.1667 10.0003C19.3708 10.0003 19.5678 10.0753 19.7203 10.2109C19.8728 10.3466 19.9703 10.5335 19.9942 10.7362L20 10.8337V14.1672C19.9998 14.3796 19.9184 14.584 19.7726 14.7384C19.6268 14.8929 19.4275 14.9858 19.2155 14.9983C19.0035 15.0107 18.7947 14.9417 18.6318 14.8054C18.4689 14.669 18.3643 14.4757 18.3392 14.2647L18.3333 14.1672V10.8337C18.3333 10.6127 18.4211 10.4007 18.5774 10.2444C18.7337 10.0881 18.9457 10.0003 19.1667 10.0003Z" fill="white"/>
</svg>
